
<svg width="137px" height="46px" viewBox="0 0 137 46" version="1.1" xmlns="http://www.w3.org/2000/svg" xmlns:xlink="http://www.w3.org/1999/xlink">
    <!-- Generator: Sketch 44.1 (41455) - http://www.bohemiancoding.com/sketch -->
    <desc>Created with Sketch.</desc>
    <defs></defs>
    <g id="SDIM_Settings" stroke="none" stroke-width="1" fill="none" fill-rule="evenodd">
        <g id="Desktop-HD-Wizard" transform="translate(-770.000000, -1541.000000)" fill-rule="nonzero">
            <g id="Group-4" transform="translate(118.000000, 1527.000000)">
                <g id="Group-3" transform="translate(649.000000, 14.000000)">
                    <g id="XMPP_logo" transform="translate(47.000000, 10.000000)">
                        <path d="M38.2221772,4.58267779 C38.2221772,15.3040524 25.6682158,31.5122368 13,34.6712753 L13,35 C29.8313475,33.4676202 48.5761073,16.4223282 49,0 L38.7255147,3.94608661 C38.7451653,4.31013111 38.2221772,4.21418355 38.2221772,4.58267779 Z" id="Shape" fill="#2199E8"></path>
                        <path d="M34.4990077,6.62172275 C34.4990077,17.5646676 25.7947264,32.3098679 13,35.5353272 L13,36 C29.7465268,34.9148173 43,18.1105233 43,5.00289017 C43,4.32873142 42.9645591,3.66053365 42.8948115,3 L34.4655515,5.49680017 C34.4865325,5.87092279 34.4990077,6.24561313 34.4990077,6.62172275 Z" id="Shape" fill="#2199E8"></path>
                        <path d="M10.4098947,4.02655104 C10.3879911,4.39918013 10.9182286,4.30126922 10.9182286,4.6773039 C10.9182286,15.6180686 24.1622203,32.3097517 37,35.5348522 L37,36 C19.945637,34.4334253 0.429537941,16.758376 0,0 L10.4110325,4.02683484 L10.4098947,4.02655104 Z" id="Shape" fill="#2199E8"></path>
                        <path d="M15.5350156,5.49793559 C15.5134675,5.87063893 15.5009923,6.2444777 15.5009923,6.62115504 C15.5009923,17.5640999 24.2049901,32.3093002 37,35.5347595 L37,36 C20.2594273,35.2080409 7,18.1102395 7,5.00289017 C7,4.32873142 7.03629147,3.66053365 7.10518855,3 L15.5344485,5.49736788 L15.5350156,5.49793559 Z" id="Shape" fill="#2199E8"></path>
                        <path d="M40.6643999,2.73757767 C40.6759723,3.00806026 40.7183101,3.35634522 40.7183101,3.62879394 C40.7183101,15.2061792 30.1982004,31.2121202 16.0850182,33.7161205 C15.1696738,34.0219934 13.9574,34.2994978 13,34.5396459 L13,35 C32.2902548,32.5676228 44.3808167,14.8559282 42.8735891,2 L40.6643999,2.73757767 Z" id="Shape" fill="#F9F9F9"></path>
                        <path d="M7.12076764,3.00112207 L9.27281826,3.76468888 C9.26123442,4.03454607 9.25417111,4.39697382 9.25417111,4.66935566 C9.25417111,16.2319789 19.7844427,32.2172305 33.9113539,34.7183186 C34.8281721,35.0235209 36.0410844,35.3009521 37,35.5405134 L37,36 C18.5636194,34.4403264 5.61063103,15.8403774 7.11935498,3 L7.12076764,3.00112207 Z" id="Shape" fill="#F9F9F9"></path>
                    </g>
                    <g id="raspberry-pi" transform="translate(0.000000, 5.000000)" fill="#2199E8">
                        <path d="M7.3429901,3.66349833 C11.3314974,5.59666701 13.6502446,7.16050274 14.9205885,8.49237272 C14.2700594,10.9435982 10.8763069,11.0554734 9.63539226,10.9867294 C9.88946105,10.8755791 10.1015063,10.7423196 10.176686,10.537779 C9.86530074,10.3297347 8.76125169,10.5157906 7.990435,10.1087632 C8.28652731,10.0510134 8.42506355,9.99483417 8.56347128,9.78944783 C7.83532067,9.57113424 7.05088167,9.3829037 6.58952257,9.02118212 C6.83845087,9.02408169 7.07092959,9.07361605 7.39606567,8.86158486 C6.74386582,8.53115449 6.04784328,8.2692265 5.50706358,7.76409693 C5.84427982,7.75636474 6.20784108,7.76095573 6.31360669,7.64436878 C5.71666712,7.29666179 5.21289896,6.91005222 4.7960051,6.48707718 C5.26790222,6.54059845 5.46722477,6.49456775 5.58134368,6.41724583 C5.13000853,5.98267251 4.55889993,5.61575586 4.2865824,5.0803016 C4.63690689,5.19386816 4.95754504,5.23736174 5.18861013,5.07039473 C5.03529498,4.74515943 4.37834017,4.55330443 4,3.79325417 C4.36895877,3.82696169 4.76015017,3.86888466 4.83841416,3.79325417 C4.66723579,3.13746768 4.3734567,2.7687388 4.08533216,2.38672021 C4.87478313,2.375726 6.07097549,2.38961979 6.01687182,2.32691654 L5.52865364,1.85803162 C6.29985587,1.66279379 7.08892131,1.88932283 7.66182908,2.057498 C7.91898217,1.86673034 7.65720264,1.6254618 7.34337564,1.37911901 C7.9987883,1.46139436 8.59097291,1.60299012 9.1263551,1.79810714 C9.41229493,1.55538882 8.94065484,1.31254968 8.71241702,1.06983135 C9.72496533,1.2503297 10.1539393,1.50416305 10.5802146,1.75823803 C10.8895437,1.47951669 10.5979493,1.24259751 10.3892453,1 C11.1527368,1.26579408 11.5459844,1.60903089 11.9599225,1.94779753 C12.1002579,1.7697155 12.3165441,1.63911395 12.0554071,1.20949406 C12.5974719,1.50319652 13.0057555,1.84933291 13.3077594,2.23715063 C13.6431764,2.03635529 13.507596,1.76186249 13.5093951,1.50875404 C14.072793,1.93958208 14.4303142,2.39807687 14.8678985,2.84569827 C14.9560579,2.78529052 15.0331653,2.58074989 15.1014053,2.25708519 C16.4452583,3.48275835 18.3442844,6.57019824 15.589495,7.7943008 C13.2450454,5.97651092 10.4450197,4.65515188 7.34209051,3.66398159 L7.3429901,3.66349833 M27.6563967,3.6636756 C23.6682852,5.59703919 21.3494692,7.16035388 20.0792161,8.49243331 C20.7297646,10.9435996 24.1234892,11.055472 25.3644406,10.9867297 C25.1103643,10.8755821 24.8983127,10.7423258 24.8232593,10.5377902 C25.1346538,10.3297509 26.2387356,10.5158023 27.0094467,10.1087847 C26.7133456,10.0510363 26.5749337,9.99485846 26.4363934,9.78947708 C27.1646941,9.57116877 27.9491564,9.38294278 28.4104006,9.02122994 C28.161465,9.02412944 27.9289793,9.07366259 27.6038336,8.86163653 C28.2561813,8.53121414 28.9522245,8.26929248 29.4930202,7.76417512 C29.1556655,7.75644311 28.7920934,7.76103399 28.6864532,7.64444986 C29.2834105,7.29675128 29.7871936,6.91015104 30.2040998,6.48718623 C29.7320602,6.5407062 29.5328602,6.49467661 29.4187379,6.41735656 C29.869958,5.98279374 30.441212,5.61588596 30.7135376,5.08044463 C30.3630742,5.19400845 30.0424266,5.23750098 29.8113546,5.070538 C29.9646743,4.74531056 30.6217771,4.55346019 31,3.7934283 C30.6311588,3.82713501 30.2398273,3.86905697 30.161561,3.7934283 C30.33313,3.13741603 30.6269178,2.76869606 30.9150509,2.38668671 C30.1255765,2.37569276 28.9293486,2.38958621 28.9834539,2.32688448 L29.4716866,1.85789008 C28.7004615,1.66277777 27.9113726,1.88930135 27.3384479,2.05747245 C27.0812872,1.86670939 27.3429459,1.62544669 27.6567822,1.37910985 C27.0014787,1.4612624 26.409148,1.60297555 25.8738784,1.79808785 C25.5878016,1.5553754 26.0595842,1.31254212 26.2878288,1.06982967 C25.2752504,1.25032365 24.8462637,1.50415086 24.4198473,1.7582197 C24.110509,1.4795051 24.4022406,1.24259165 24.6109507,1 C23.8474366,1.26578766 23.4541773,1.60901618 23.040227,1.94777463 C22.8997589,1.7696969 22.6835948,1.63909851 22.944611,1.209489 C22.4026586,1.50318436 21.994363,1.84931238 21.6923502,2.23712074 C21.3569231,2.03633025 21.4925076,1.76172327 21.4907084,1.50874174 C20.9272938,1.93955938 20.569762,2.39792228 20.1321647,2.84565367 C20.0440027,2.78524738 19.966893,2.5807117 19.898651,2.256934 C18.5547581,3.48269836 16.6556758,6.57006365 19.4105468,7.79413664 C21.7537808,5.97590742 24.5537611,4.65482194 27.6569108,3.6636756 L27.6563967,3.6636756" id="Shape"></path>
                        <path d="M21.9999364,30.5 C22.0130091,32.9722815 20.0088876,34.9870087 17.5237382,34.9999362 C15.0384677,35.0129943 13.0131635,33.0194211 13.0000908,30.5471396 C12.9999697,30.5314267 12.9999697,30.5157129 13.0000908,30.5 C12.9870181,28.0278491 14.9910185,26.0131218 17.476289,26.0000638 C19.9615595,25.9870057 21.9867426,27.9805789 21.9999364,30.4528604 L21.9999364,30.5 M15.2622805,17.5689702 C17.2240861,18.77779 17.5777563,21.5176059 16.0521479,23.6885232 C14.5265396,25.8595602 11.6994712,26.6397298 9.73766548,25.4310298 C7.77585979,24.22221 7.42231704,21.4823941 8.94779799,19.3114768 C10.4734063,17.1404398 13.3004748,16.3602702 15.2622805,17.5689702 M20.7376341,17.5689763 C18.7759473,18.7776808 18.4222756,21.5176268 19.9477632,23.6885522 C21.4733781,25.8595974 24.3004588,26.63977 26.2622729,25.4309457 C28.2240871,24.2222411 28.5777588,21.4824149 27.0521438,19.3113697 C25.5266563,17.1404442 22.6995756,16.3602717 20.7376341,17.5689763 M5.81466896,20.0247128 C8.16572327,19.4616437 6.60843782,28.7148973 4.69547606,27.9556761 C2.59124641,26.4435489 1.91353885,22.0151583 5.81466896,20.0247128 M29.1854191,20.0246994 C26.8341555,19.4617913 28.391675,28.7148551 30.304577,27.9556805 C32.4087408,26.4435199 33.0864272,22.0148963 29.1854191,20.0246994 M22.1623738,13.1066199 C25.9621289,12.4728454 29.1238916,14.7029573 28.9962666,18.7731861 C28.8712895,20.3336889 20.762471,13.3390213 22.1623738,13.1066199 M12.8376001,13.1066392 C9.03759489,12.4727463 5.8761092,14.7033379 6.00373366,18.773226 C6.12871032,20.3335677 14.2376298,13.3390361 12.8376001,13.1066392 M16.980158,12.0014035 C14.9515992,11.9447616 13.0047512,13.6159533 13.0000144,14.5853435 C12.9944486,15.7631406 14.603914,16.9691317 16.9940133,16.9997387 C19.4346786,17.0184077 20.992157,16.0344124 20.9999728,14.8188963 C21.0089729,13.4417094 18.7801635,11.9800675 16.980158,12.0012765 L16.980158,12.0014035 M17.6437485,36.0060776 C19.5016955,35.9310611 21.9947159,36.5594967 21.999692,37.3933072 C22.0305437,38.2028408 19.7386818,40.0320003 17.5205903,39.9966782 C15.2233791,40.0883778 12.9708283,38.2563419 13.0003116,37.6213481 C12.9658522,36.6903153 15.7973709,35.9633918 17.6437485,36.0060776 M10.570077,30.3525537 C11.9244478,31.9866603 12.5419584,34.8576363 11.4116389,35.7040295 C10.3423318,36.3501458 7.74555228,36.0840454 5.89989888,33.4285266 C4.65507,31.2002226 4.81543422,28.9327562 5.68947657,28.2666122 C6.99646411,27.4693315 9.01585602,28.5463621 10.5702044,30.3525537 L10.570077,30.3525537 M24.6479651,29.5646519 C23.2275035,31.3251483 22.4365885,34.5362415 23.4727044,35.5704597 C24.4635088,36.3739515 27.1231857,36.2615933 29.0877563,33.3769922 C30.5142676,31.4395969 30.0363357,28.2040723 29.2214686,27.3449239 C28.0110205,26.3542119 26.2732546,27.6221613 24.6479651,29.5641293 L24.6479651,29.5646519" id="Shape"></path>
                    </g>
                    <g id="browser" transform="translate(110.000000, 0.000000)" fill="#2199E8">
                        <path d="M23.6411656,0 C20.4791418,2.27803987 17.7250242,4.86275972 15.9911724,8.29635952 L17.2156113,3.4335198 C15.3834796,6.69806628 14.1265327,10.0743061 13.7249197,13.3751872 L11.2665086,11.729894 L10.8250023,12.0697473 C13.0350804,16.0472804 11.8797614,18.1553869 10.7916557,18.9034402 C8.58157764,20.4334268 5.3507805,22.3370134 3.75310191,24.0029066 C0.659024654,27.1646664 -0.225681229,30.1906929 0.0464118636,34.1684794 C0.352358259,39.2684804 4.05891498,43.5178135 9.02248391,45.1837067 C11.198202,45.89792 13.2040935,46 15.4480396,46 C19.051903,46 22.7578731,45.0486267 25.4436707,42.8046935 C28.2994948,40.4248537 30,36.8546139 30,33.1489061 C30,29.4091063 28.4358947,25.8723065 25.6818972,23.3565333 C24.2198851,22.0306934 22.3830867,20.9436668 20.4792084,19.8896668 C19.6293159,19.4134402 17.0113448,17.3741203 17.8953307,14.4503338 L16.0022924,14.1914672 C18.6292767,10.0788127 22.0469804,5.99095965 26.3266699,2.17573321 C23.0289928,3.29769314 20.1062354,4.99818638 17.930264,8.0581462 C19.2222495,5.37234636 21.329261,2.68579984 23.6411656,0 Z M11.3128844,13 L13.1792278,13.7865544 C13.1792278,13.7878751 13.1793442,13.7886675 13.1792278,13.7897241 L14,14.1546785 L13.9815124,14.1546785 L13.9815124,32.721958 C13.6176556,33.8348886 13.3045557,34.0152592 12.4354701,35.0611646 C11.413713,36.2736245 11.2435882,38.0588144 11.2435882,39.5067454 C11.2435882,40.1131008 11.4807209,40.7862979 11.7117125,41.4259222 C11.9752967,42.0995947 12.2007162,42.77089 12.5632802,43.2758934 C13.0306934,43.9781595 13.6105708,44.4195703 13.9815124,44.5862715 L13.9815124,44.672805 C12.7136504,44.3965501 11.2614165,43.9365304 10.3920206,43.175215 C8.64494167,41.6261829 7.09749014,39.0354731 6.89954345,36.7789846 C6.73492617,34.9269002 8.41349751,32.1959948 10.7538993,30.8153677 C12.7317501,29.6367049 13.1911995,28.2939296 13.6196466,26.1385421 C13.0263366,28.0244104 12.4687477,29.6053378 10.5568059,30.6155956 C7.78769846,32.0972974 6.36738478,34.5836849 6.49917686,36.9410236 C6.69686497,39.9717839 7.88532078,42.0250666 10.2257097,43.6754638 C10.9045539,44.1609074 11.9869969,44.6660429 12.9728906,45 C9.37674064,44.1498398 9.0203306,43.7536504 7.98362831,42.5019255 C7.98362831,42.4346084 7.72031565,42.2656224 7.72031565,42.1983185 C6.40167089,40.6490355 4.71951839,38.0222437 4.1262084,35.5975879 C3.92827464,34.7557614 3.73067703,33.8472109 3.96143598,33.0051203 C5.04907615,29.0311947 7.42261346,27.4821759 9.79608612,25.831805 C10.3893961,25.4278894 10.949506,25.0228248 11.5099908,24.6189357 C12.8286485,23.5748938 13.1597576,20.7803574 13.4564126,19.2310745 C12.8956951,21.1504758 12.3346415,23.5080126 11.3128844,24.2822843 C10.7854705,24.7199707 10.1271307,25.0571239 9.56663294,25.4275064 C7.09420632,27.1449698 4.65406192,28.7615171 3.53335091,32.869839 C3.26976675,33.9141185 3.46736437,34.687784 3.6981104,35.6982664 C4.32424558,38.2240364 6.00623001,40.9183698 7.39078375,42.5349567 C7.39078375,42.5349567 7.62022401,42.7704145 7.62022401,42.8039608 C8.24849238,43.5445673 9.0583918,44.0685099 10.0101416,44.4887496 C9.18210363,44.2540709 8.38196515,43.956077 7.62176248,43.5795003 C3.76501485,41.6598612 1.19280687,37.5509714 1.02794395,34.1833736 C0.665392919,27.3471059 3.89711721,25.3600441 6.86413257,22.8680713 C8.54532837,21.4536734 10.851457,20.7794197 12.2029399,18.2872092 C12.4667697,17.7486727 12.5996866,16.5364373 12.3030316,15.2904575 C12.1709938,14.8527711 11.5436434,13.3368495 11.3128844,13.0000132 L11.3128844,13 Z M15,14.0000403 L15.8984722,14.4094709 C15.9097423,14.837861 15.9096142,15.2569862 15.9061563,15.6649532 C15.9033388,15.5245153 15.9026985,15.3805861 15.9061563,15.2347369 C15.8092846,17.0643513 15.782659,17.739525 16.1090439,19.0747397 C16.4681889,20.5470758 18.2974939,22.6684558 19.0485313,25.0994464 C20.4853675,29.75588 20.127247,35.8508406 19.0820983,40.6098064 C18.8981394,41.3976769 18.3878981,42.3511217 17.7076958,43.2231288 C17.9473393,42.763466 18.1540817,42.2631986 18.2980189,41.7389497 C19.3431805,37.904291 19.7670518,36.1245597 19.2773657,31.8790324 C19.2120759,31.4678831 19.0481855,30.0638929 18.4276892,28.5572093 C17.5133249,26.2630983 16.2080544,24.0732919 16.0449708,23.6280637 C15.7508722,22.9093044 15.3582242,19.7931633 15.292946,17.6705346 C15.3257074,19.4507224 15.4566071,22.771807 15.9137893,24.0726743 C16.0443432,24.5176608 17.2524091,26.4699888 18.1012531,28.832298 C18.6892326,30.4758612 18.8193126,31.9826119 18.9173498,32.4275985 C19.309255,34.379282 18.8200939,37.6652954 18.1668375,40.7809396 C17.898135,42.16213 17.097125,43.82045 16.1121048,44.8224753 C16.0998101,44.8318746 16.0878356,44.8419989 16.0754897,44.8512504 C16.6877255,44.2015083 17.2845289,43.1141917 17.6466708,41.8061139 C18.1366131,39.991592 18.3310352,37.6695787 18.2980189,36.1972561 C18.2652716,35.3413619 17.9048331,33.4879259 17.2515895,31.8102703 C16.8924444,30.8859498 16.3402988,29.9610518 15.9809105,29.3105041 C15.5894919,28.6594461 15.5866488,27.2561407 15.3905745,25.6128325 C15.4233347,27.3932755 15.2575091,28.2865785 15.6819324,29.5535951 C15.9430275,30.306675 16.8254898,31.3338366 17.086841,32.3268521 C17.4459988,33.6623085 17.8367898,35.1343103 17.8037991,36.0245116 C17.8037991,37.0518746 17.7431326,38.9696 17.3187106,41.024044 C17.0009064,42.6907965 16.2761104,44.1237901 15.0626003,44.9568172 C15.0417506,44.9711175 15.0211827,44.9860489 15.000064,45 L15.000064,44.9376294 C15.0108219,44.9409862 15.0219639,44.946223 15.0320942,44.9489085 C15.0341433,44.9489085 15.0374731,44.9489085 15.0397784,44.9489085 C15.0470783,44.950654 15.0557742,44.9554879 15.0626516,44.9568307 L15.0626516,44.9168436 C15.6962634,44.1761975 16.0768472,43.440815 16.2051984,42.7001555 C16.3685253,41.8099407 16.4061521,40.9179938 16.5041764,39.8565385 C16.601983,38.9663103 16.5314168,37.7671428 16.3028257,36.5347154 C15.9764408,34.9939394 15.4254863,33.4221447 15.1968939,32.3268521 C15.2294107,33.5251871 15.6875035,35.0603517 15.8833344,36.6354751 C16.046879,37.7997044 15.9771196,38.9699223 15.9443594,39.9972853 C15.9120732,41.1863822 15.5333207,43.3161812 15.0168924,44.352272 C15.0110012,44.3494523 15.0058784,44.3470353 15.0001153,44.3442155 L15.0001153,14 L15,14.0000403 Z M14,33 L14,44 C13.6751466,43.7903264 13.5195634,43.5439672 13.2787812,43.1719808 C12.9439089,42.6075963 12.7157954,42.0432768 12.4923465,41.3794711 C12.3249158,40.8814411 12.129027,40.3127865 12.0449996,39.6489938 C11.9333792,38.6531941 11.9644214,37.0946111 12.9136113,35.5011259 C13.5826004,34.3386119 13.7770876,34.1630074 14,33 Z" id="path2554-4"></path>
                    </g>
                </g>
            </g>
        </g>
    </g>
</svg>