
<svg width="62px" height="95px" viewBox="0 0 62 95" version="1.1" xmlns="http://www.w3.org/2000/svg" xmlns:xlink="http://www.w3.org/1999/xlink">
    <!-- Generator: Sketch 44.1 (41455) - http://www.bohemiancoding.com/sketch -->
    <desc>Created with Sketch.</desc>
    <defs></defs>
    <g id="SDIM_Settings" stroke="none" stroke-width="1" fill="none" fill-rule="evenodd">
        <g id="Desktop-HD-Wizard" transform="translate(-838.000000, -1071.000000)" fill-rule="nonzero" fill="#2199E8">
            <g id="Group-3" transform="translate(118.000000, 1050.000000)">
                <g id="browser" transform="translate(719.000000, 21.000000)">
                    <path d="M49.858409,0 C43.3235596,4.70464755 37.6317167,10.0426559 34.048423,17.133786 L36.5789301,7.09096481 C32.7925245,13.832963 30.1948343,20.8056321 29.3648341,27.6226693 L24.2841178,24.2247811 L23.3716715,24.926652 C27.9391661,33.1411226 25.5515069,37.4948209 23.3027551,39.0397135 C18.7352605,42.1994684 12.0582797,46.1307885 8.75641062,49.5712202 C2.36198429,56.1009415 0.533592127,62.3503441 1.09591785,70.5653378 C1.72820707,81.0979486 9.38842428,89.8737452 19.6464668,93.3141769 C24.1429508,94.7891826 28.28846,95 32.9259484,95 C40.3739329,95 48.0329377,93.0352074 53.5835861,88.4009975 C59.4856227,83.4861108 63,76.1127895 63,68.4596973 C63,60.7361978 59.7675158,53.4319373 54.0759208,48.2363188 C51.0544292,45.4981711 47.2583793,43.2532249 43.3236974,41.0764859 C41.5672528,40.0929743 36.1567793,35.8813355 37.9836835,29.8430807 L34.0714043,29.3084648 C39.5005053,20.8149394 46.5637594,12.3726341 55.4084512,4.49336206 C48.5932519,6.81045323 42.5528866,10.3223414 38.055879,16.6418237 C40.7259824,11.0950631 45.0804728,5.54676055 49.858409,0 Z M25.2123665,26 L29.2321829,27.6468482 C29.2321829,27.6496135 29.2324336,27.6512727 29.2321829,27.6534849 L31,28.4176081 L30.9601805,28.4176081 L30.9601805,67.2928497 C30.176489,69.623048 29.5021199,70.000699 27.6302432,72.1905633 C25.4295357,74.7291513 25.0631131,78.4668926 25.0631131,81.4984982 C25.0631131,82.7680549 25.5738603,84.1775612 26.0713809,85.5167747 C26.6391006,86.9272765 27.1246196,88.3328008 27.9055266,89.3901518 C28.9122628,90.8605214 30.1612295,91.7847253 30.9601805,92.1337559 L30.9601805,92.3149355 C28.2294008,91.7365269 25.1015124,90.7733605 23.2289674,89.1793563 C19.4660282,85.9360705 16.1330557,80.5117718 15.706709,75.7872489 C15.3521487,71.9094474 18.9675331,66.1916141 24.0083986,63.300926 C28.2683849,60.8331009 29.2579681,58.0216651 30.1807772,53.5088225 C28.9028788,57.4573593 27.7019182,60.7674261 23.5838897,62.8826534 C17.6196582,65.9849665 14.5605211,71.1908403 14.8443809,76.1265182 C15.2701707,82.4721725 17.8299217,86.7712331 22.8707593,90.2267524 C24.3328854,91.2431499 26.664301,92.3007774 28.7877643,93 C21.0422106,91.219977 20.2745582,90.3904555 18.041661,87.7696564 C18.041661,87.6287113 17.474526,87.2748968 17.474526,87.1339794 C14.6343681,83.8901681 11.0112704,78.3903227 9.73337194,73.3136997 C9.30705308,71.5511255 8.88145821,69.6488478 9.3784775,67.8857206 C11.7210871,59.565314 16.8333213,56.3220558 21.9454163,52.8665918 C23.2233147,52.0208935 24.4297052,51.1727895 25.6369032,50.3271465 C28.477089,48.141184 29.1902472,42.2901234 29.8291964,39.0463121 C28.6214972,43.0650588 27.413074,48.0011514 25.2123665,49.6222828 C24.076398,50.5386886 22.6584353,51.2446032 21.4512094,52.0200916 C16.1259828,55.6160306 10.8702872,59.0006763 8.45644811,67.6024754 C7.88872839,69.7889357 8.31432326,71.4087978 8.8113147,73.5244952 C10.1599136,78.8128262 13.7826493,84.4540868 16.764765,87.8388155 C16.764765,87.8388155 17.258944,88.3318053 17.258944,88.4020428 C18.6121374,89.9526878 20.3565362,91.0496926 22.4064588,91.9295694 C20.6229924,91.438211 18.8996172,90.8142863 17.2622577,90.0258289 C8.9554166,86.0065845 3.41527633,77.4035964 3.06018697,70.3526884 C2.27930783,56.039253 9.23994476,51.8788423 15.6304394,46.6612743 C19.2514765,43.6998786 24.2185228,42.2881601 27.129409,37.0700942 C27.6976578,35.9425334 27.9839403,33.4044155 27.344991,30.7956453 C27.0606021,29.8792395 25.7093857,26.7052786 25.2123665,26.0000277 L25.2123665,26 Z M31,29.0000832 L32.9766388,29.8453592 C33.001433,30.7297776 33.0011513,31.5950684 32.993544,32.4373228 C32.9873454,32.1473863 32.9859366,31.8502424 32.993544,31.5491343 C32.7804262,35.3264026 32.7218498,36.7203097 33.4398966,39.476882 C34.2300156,42.5165436 38.2544865,46.8961667 39.9067688,51.9149862 C43.0678085,61.5282684 42.2799435,74.1114129 39.9806162,83.9363745 C39.5759066,85.5629459 38.4533757,87.531348 36.9569308,89.3316207 C37.4841465,88.3826395 37.9389798,87.3498293 38.2556417,86.267509 C40.5549972,78.3507943 41.4875141,74.6765104 40.4102045,65.9115508 C40.266567,65.0627264 39.9060081,62.1641659 38.5409163,59.0535934 C36.5293148,54.3173642 33.6577196,49.7964737 33.2989357,48.8772928 C32.6519188,47.3934026 31.7880933,40.9600792 31.6444811,36.5778779 C31.7165563,40.2531044 32.0045357,47.1095371 33.0103364,49.7951985 C33.2975551,50.7138803 35.9553,54.7444931 37.8227569,59.6215184 C39.1163116,63.0146813 39.4024878,66.1253924 39.6181695,67.0440743 C40.4803609,71.0733564 39.4042065,77.857384 37.9670424,84.2896817 C37.3758971,87.1411715 35.6136749,90.5648 33.4466305,92.6334975 C33.4195822,92.6529024 33.3932383,92.6738042 33.3660774,92.6929041 C34.7129961,91.3515011 36.0259636,89.1067183 36.8226757,86.4061706 C37.9005488,82.6600609 38.3282775,77.866227 38.2556417,74.8265932 C38.1835975,73.0595859 37.3906328,69.2331374 35.9534968,65.7695903 C35.1633778,63.8613156 33.9486574,61.9518489 33.158003,60.6087826 C32.2968823,59.2646629 32.2906274,56.3675162 31.859264,52.9748801 C31.9313363,56.6506332 31.5665201,58.4948718 32.5002514,61.1106479 C33.0746606,62.6653936 35.0160775,64.7859853 35.5910502,66.8360818 C36.3811974,69.5931531 37.2409376,72.6321244 37.1683581,74.4699594 C37.1683581,76.5909669 37.0348918,80.550142 36.1011634,84.7915747 C35.4019941,88.2326122 33.8074429,91.1910505 31.1377207,92.9108485 C31.0918514,92.9403716 31.0466019,92.9711976 31.0001409,93 L31.0001409,92.8712348 C31.0238081,92.8781652 31.0483206,92.8889764 31.0706072,92.8945207 C31.0751153,92.8945207 31.0824408,92.8945207 31.0875124,92.8945207 C31.1035723,92.8981244 31.1227033,92.9081041 31.1378334,92.9108762 L31.1378334,92.8283224 C32.5317795,91.2992465 33.3690639,89.7810374 33.6514365,88.2519339 C34.0107557,86.4140712 34.0935346,84.5726324 34.3091881,82.3812407 C34.5243627,80.5433503 34.3691169,78.0676496 33.8662166,75.5232834 C33.1481698,72.3423266 31.9360698,69.097331 31.4331666,66.8360818 C31.5047036,69.3100638 32.5125076,72.4794358 32.9433356,75.7313035 C33.3031338,78.1348736 33.1496631,80.5508073 33.0775908,82.6718147 C33.0065609,85.1267245 32.1733055,89.5237289 31.0371632,91.6627551 C31.0242026,91.6569337 31.0129324,91.6519439 31.0002536,91.6461224 L31.0002536,29 L31,29.0000832 Z M31,68 L31,91 C30.1878665,90.5615917 29.7989085,90.0464768 29.196953,89.2686872 C28.3597723,88.0886104 27.7894885,86.9086696 27.2308662,85.5207123 C26.8122895,84.4793767 26.3225676,83.2903717 26.1124991,81.9024415 C25.833448,79.8203149 25.9110534,76.5614596 28.2840282,73.2296269 C29.956501,70.7989158 30.442719,70.4317427 31,68 Z" id="path2554-4"></path>
                </g>
            </g>
        </g>
    </g>
</svg>