
<svg width="102px" height="76px" viewBox="0 0 102 76" version="1.1" xmlns="http://www.w3.org/2000/svg" xmlns:xlink="http://www.w3.org/1999/xlink">
    <!-- Generator: Sketch 44.1 (41455) - http://www.bohemiancoding.com/sketch -->
    <desc>Created with Sketch.</desc>
    <defs></defs>
    <g id="SDIM_Settings" stroke="none" stroke-width="1" fill="none" fill-rule="evenodd">
        <g id="Desktop-HD-Wizard" transform="translate(-805.000000, -600.000000)" fill-rule="nonzero">
            <g id="Group-3" transform="translate(119.000000, 573.000000)">
                <g id="XMPP_logo" transform="translate(686.000000, 27.000000)">
                    <path d="M79.2468185,9.82002384 C79.2468185,32.7943981 52.7440112,67.5262217 26,74.29559 L26,75 C61.5328447,71.716329 101.105115,35.1907032 102,0 L80.3094198,8.45589988 C80.3509046,9.23599523 79.2468185,9.03039333 79.2468185,9.82002384 Z" id="Shape" fill="#2199E8"></path>
                    <path d="M71.1479161,12.572693 C71.1479161,35.453396 52.8689254,66.2842692 26,73.0284114 L26,74 C61.1677063,71.7309816 89,36.5947306 89,9.18786127 C89,7.77825661 88.9255741,6.38111581 88.7791041,5 L71.0776581,10.2205822 C71.1217182,11.0028386 71.1479161,11.786282 71.1479161,12.572693 Z" id="Shape" fill="#2199E8"></path>
                    <path d="M21.6638349,8.38864801 C21.6182517,9.16495861 22.7217191,8.96097753 22.7217191,9.74438313 C22.7217191,32.5376429 50.2835396,67.3119827 77,74.0309421 L77,75 C41.5084877,71.7363027 0.893903283,34.9132834 0,0 L21.6662028,8.38923926 L21.6638349,8.38864801 Z" id="Shape" fill="#2199E8"></path>
                    <path d="M32.9235327,11.2229562 C32.8782818,12.002245 32.8520839,12.7839079 32.8520839,13.571506 C32.8520839,36.4522089 51.1304792,67.2830822 78,74.0272244 L78,75 C42.8447973,73.3440855 15,37.5941371 15,10.1878613 C15,8.77825661 15.0762121,7.38111581 15.2208959,6 L32.9223419,11.2217692 L32.9235327,11.2229562 Z" id="Shape" fill="#2199E8"></path>
                    <path d="M84.0952398,6.56455869 C84.1195418,7.13830964 84.2084513,7.87709592 84.2084513,8.45501745 C84.2084513,33.0131075 62.1162208,66.9651034 32.4785383,72.2766193 C30.5563151,72.9254405 28.01054,73.5140863 26,74.0234914 L26,75 C66.5095352,69.8404119 91.899715,32.2701507 88.7345371,5 L84.0952398,6.56455869 Z" id="Shape" fill="#F9F9F9"></path>
                    <path d="M14.253612,6.00238014 L18.7729183,7.62206732 C18.7485923,8.19449167 18.7337593,8.9632778 18.7337593,9.54105746 C18.7337593,34.0678341 40.8473296,67.9759436 70.5138432,73.2812819 C72.4391614,73.9286807 74.9862773,74.517171 77,75.0253315 L77,76 C38.2836008,72.6916015 11.0823252,33.2371642 14.2506455,6 L14.253612,6.00238014 Z" id="Shape" fill="#F9F9F9"></path>
                </g>
            </g>
        </g>
    </g>
</svg>