
<svg width="74px" height="91px" viewBox="0 0 74 91" version="1.1" xmlns="http://www.w3.org/2000/svg" xmlns:xlink="http://www.w3.org/1999/xlink">
    <desc>Created with Sketch.</desc>
    <defs></defs>
    <g id="SDIM_Settings" stroke="none" stroke-width="1" fill="none" fill-rule="evenodd">
        <g id="Desktop-HD-Wizard" transform="translate(-838.000000, -113.000000)" fill-rule="nonzero" fill="#FFAE00">
            <g id="Group-2" transform="translate(118.000000, 96.000000)">
                <g id="raspberry-pi" transform="translate(720.000000, 17.000000)">
                    <path d="M16.2002864,8.12604616 C24.7909175,12.5723341 29.7851422,16.1691563 32.5212676,19.2324572 C31.1201278,24.8702759 23.8105072,25.1275888 21.1377679,24.9694775 C21.684993,24.7138319 22.1417059,24.4073351 22.3036314,23.9368917 C21.6329554,23.4583898 19.2550036,23.8863183 17.5947831,22.9501553 C18.2325204,22.8173308 18.5309061,22.6881186 18.8290151,22.21573 C17.2606907,21.7136088 15.5711298,21.2806785 14.5774332,20.4487189 C15.1135865,20.4553879 15.6143099,20.5693169 16.314603,20.0816452 C14.9098648,19.3216553 13.4107394,18.719221 12.2459831,17.5574229 C12.972295,17.5396389 13.75535,17.5501982 13.9831529,17.2820482 C12.6974369,16.4823221 11.6123978,15.5931201 10.7144725,14.6202775 C11.7308663,14.7433764 12.1601764,14.6375058 12.405971,14.4596654 C11.4338645,13.4601468 10.2037845,12.6162385 9.6172544,11.3846937 C10.3717995,11.6458968 11.0624047,11.745932 11.5600834,11.3619079 C11.2298661,10.6138667 9.81488652,10.1726002 9,8.42448458 C9.79468044,8.50201189 10.6372465,8.59843473 10.8058151,8.42448458 C10.4371232,6.91617566 9.80436828,6.06809924 9.18379234,5.18945649 C10.8841483,5.16416981 13.4605626,5.19612551 13.3440316,5.05190805 L12.2924848,3.97347273 C13.9535357,3.52442571 15.6530613,4.04544252 16.8870165,4.4322454 C17.4408847,3.99347978 16.8770518,3.43856214 16.2011168,2.87197373 C17.6127748,3.06120703 18.8882493,3.38687727 20.0413802,3.83564642 C20.6572506,3.27739427 19.6414104,2.71886426 19.1498213,2.16061211 C21.3306945,2.57575831 22.2546386,3.15957501 23.1727699,3.74394746 C23.8390171,3.10288838 23.2109677,2.55797427 22.7614515,2 C24.4058947,2.61132639 25.2528895,3.40077105 26.1444484,4.17993432 C26.4467093,3.77034564 26.9125565,3.46996209 26.3501076,2.48183634 C27.5176319,3.157352 28.3970118,3.95346568 29.0474817,4.84544646 C29.7699184,4.38361716 29.477899,3.75228373 29.4817741,3.17013428 C30.6952464,4.16103878 31.4652921,5.2155768 32.4077814,6.24510601 C32.5976632,6.1061682 32.7637407,5.63572475 32.9107192,4.89129594 C35.8051717,7.71034421 39.8953817,14.811456 33.9619892,17.6268919 C28.9124054,13.4459751 22.8815808,10.4068493 16.1983488,8.12715766 L16.2002864,8.12604616 M61.7983929,8.12645387 C53.2086142,12.5731901 48.2142414,16.1688139 45.4783116,19.2325966 C46.8794929,24.8702791 54.1890536,25.1275857 56.8618721,24.9694783 C56.3146308,24.7138389 55.8579043,24.4073494 55.6962508,23.9369174 C56.3669467,23.4584271 58.744969,23.8863452 60.404962,22.9502048 C59.7672058,22.8173835 59.469088,22.6881745 59.1706934,22.2157973 C60.7393411,21.7136882 62.4289522,21.2807684 63.4224014,20.4488289 C62.8862322,20.4554977 62.3854939,20.569424 61.6851801,20.081764 C63.0902367,19.3217925 64.5894066,18.7193727 65.7541974,17.5576028 C65.0275872,17.5398192 64.244509,17.5503782 64.0169761,17.2822347 C65.3027303,16.4825279 66.3878016,15.5933474 67.2857534,14.6205283 C66.2690527,14.7436243 65.8400066,14.6377562 65.5942048,14.4599201 C66.5660633,13.4604256 67.7964566,12.6165377 68.3830041,11.3850227 C67.6281599,11.6462194 66.9375341,11.7462523 66.4398407,11.3622374 C66.7700678,10.6142143 68.1853661,10.1729584 69,8.42488509 C68.2055728,8.50241052 67.3627049,8.59883103 67.1941313,8.42488509 C67.5636646,6.91605687 68.1964383,6.06800094 68.8170326,5.18937943 C67.1166262,5.16409335 64.5401355,5.19604828 64.65667,5.05183431 L65.708248,3.97314718 C64.0471478,3.52438888 62.3475718,4.0453931 61.11358,4.43218663 C60.5596954,3.99343161 61.1232682,3.43852738 61.7992233,2.87195266 C60.3878002,3.06090352 59.112011,3.38684376 57.9591227,3.83560206 C57.3429573,3.27736341 58.3591044,2.71884689 58.8507081,2.16060823 C56.6697702,2.5757444 55.7457987,3.15954699 54.8273634,3.74390532 C54.1610964,3.10286173 54.7894413,2.55796078 55.2389708,2 C53.5944788,2.61131162 52.7474589,3.40073721 51.8558735,4.17988165 C51.5533268,3.77030287 51.0877427,3.46992657 51.6499314,2.4818247 C50.4826493,3.15732404 49.6032433,3.95341848 48.9527542,4.84537771 C48.230296,4.38355957 48.5223241,3.75196352 48.5184488,3.17010601 C47.3049405,4.16098656 46.5348721,5.21522123 45.5923548,6.24500344 C45.4024673,6.10606898 45.236385,5.63563691 45.0894021,4.89094821 C42.1948637,7.71020624 38.1045324,14.8111464 44.0381009,17.6265143 C49.0850664,13.4445871 55.1157931,10.4060905 61.7995001,8.12645387 L61.7983929,8.12645387" id="Shape"></path>
                    <path d="M48.9998516,66.5 C49.0303546,71.7192609 44.3540711,75.972574 38.5553891,75.9998653 C32.7564246,76.0274323 28.0307149,71.8187778 28.0002118,66.5995169 C27.9999294,66.5663452 27.9999294,66.5331717 28.0002118,66.5 C27.9697088,61.2810147 32.6457099,57.0277017 38.4446744,57.0001347 C44.2436388,56.9725677 48.9690662,61.1812222 48.9998516,66.4004831 L48.9998516,66.5 M32.331481,39.3275972 C36.4730707,42.1481767 37.2197077,48.5410805 33.998979,53.606554 C30.7782504,58.6723071 24.8099947,60.4927029 20.6684049,57.6724028 C16.5268151,54.8518233 15.7804471,48.4589195 19.0009069,43.393446 C22.2216355,38.3276929 28.1898912,36.5072971 32.331481,39.3275972 M43.6683386,38.3276113 C39.5269998,41.147922 38.7803596,47.5411293 42.0008334,52.6066219 C45.2215759,57.672394 51.1898574,59.4927967 55.3314651,56.6722066 C59.4730728,53.8518958 60.2197129,47.458968 56.9989703,42.3931959 C53.7784966,37.3277032 47.8102152,35.5073006 43.6683386,38.3276113 M11.6293379,44.0556038 C16.3314465,42.7886984 13.2168756,63.608519 9.39095213,61.9002712 C5.18249281,58.4979849 3.8270777,48.5341061 11.6293379,44.0556038 M64.3708381,44.0555738 C59.6683111,42.7890303 62.78335,63.608424 66.6091539,61.9002812 C70.8174816,58.4979199 72.1728544,48.5335166 64.3708381,44.0555738 M49.3479439,28.2310097 C57.4902762,26.8578318 64.265482,31.6897408 63.9919999,40.5085698 C63.7241918,43.8896594 46.3481522,28.7345461 49.3479439,28.2310097 M27.6520001,28.2310515 C19.5091319,26.8576169 12.7345197,31.6905654 13.0080007,40.5086563 C13.2758078,43.8893967 30.652064,28.7345781 27.6520001,28.2310515 M38.4528753,26.0030877 C33.6350482,25.8784754 29.0112842,29.5550972 29.0000342,31.6877558 C28.9868154,34.2789094 32.8092957,36.9320897 38.4857817,36.9994251 C44.2823617,37.0404968 47.9813729,34.8757073 47.9999355,32.201572 C48.0213105,29.1717607 42.7278883,25.9561486 38.4528753,26.0028083 L38.4528753,26.0030877 M38.3194412,79.0151939 C42.4482123,78.8276527 47.9882575,80.3987417 47.9993154,82.4832679 C48.0678749,84.5071021 42.9748484,89.0800008 38.0457563,88.9916954 C32.9408424,89.2209444 27.9351739,84.6408546 28.0006924,83.0533702 C27.9241159,80.7257883 34.2163798,78.9084795 38.3194412,79.0151939 M22.9358794,67.2932459 C25.8381025,70.9699857 27.1613393,77.4296817 24.7392263,79.3340664 C22.4478539,80.7878281 16.8833263,80.1891022 12.9283548,74.2141848 C10.2608643,69.2005009 10.6045019,64.0987015 12.4774498,62.5998775 C15.2781374,60.8059959 19.6054058,63.2293147 22.9361523,67.2932459 L22.9358794,67.2932459 M53.7667773,66.4142651 C50.520008,70.1308686 48.7122023,76.9098432 51.0804673,79.0931926 C53.3451629,80.7894532 59.4244245,80.5522525 63.9148715,74.462539 C67.1754689,70.3724823 66.0830531,63.5419305 64.2204996,61.7281728 C61.4537611,59.6366696 57.4817248,62.3134516 53.7667773,66.4131618 L53.7667773,66.4142651" id="Shape"></path>
                </g>
            </g>
        </g>
    </g>
</svg>